<?xml version="1.0" encoding="UTF-8"?>
<svg id="_图层_2" data-name="图层 2" xmlns="http://www.w3.org/2000/svg" viewBox="0 0 56.17 51.57">
  <defs>
    <style>
      .cls-1 {
        fill: #ef7c1b;
        stroke-width: 2px;
      }

      .cls-1, .cls-2 {
        stroke: #fff;
        stroke-miterlimit: 10;
      }

      .cls-2 {
        fill: #040000;
      }
    </style>
  </defs>
  <g id="_图层_1-2" data-name="图层 1">
    <path class="cls-2" d="M2.34,.7c5.28,1.8,6.86,11.1,6.98,11.86,0,.03,0,.06,.01,.09,.06,.63,.78,7.91,.5,7.91H1.98c-.82,0-1.48-.74-1.48-1.66,0-3.71,0-12.65,0-16.58,0-1.08,.92-1.92,1.84-1.61Z"/>
    <path class="cls-2" d="M14.74,19.14L29.92,1.28c.86-1.01,2.29-1.04,3.18-.05l21.91,24.4c.42,.47,.66,1.12,.66,1.79v20.78c0,1.39-1,2.52-2.23,2.52h-12.53c-1.23,0-2.23-1.13-2.23-2.52v-8.72s0-.08,0-.12c.04-.95,.58-14.49-4.53-20.07-7.29-7.95-13.69,1.91-16.71,3.75-.03,.02-.06,.04-.09,.06-2.2,1.31-4.32-1.93-2.6-3.96Z"/>
    <path class="cls-2" d="M2.96,23.29h6.38c.3,0,.55,.25,.55,.55v25.26c0,.3-.25,.55-.55,.55H1.05c-.3,0-.55-.25-.55-.55V25.75c0-1.36,1.1-2.46,2.46-2.46Z"/>
    <path class="cls-1" d="M12.49,50.57L45.11,22.37c-2.89,.38-45.03,7.94-15.66,15.96,12.85,3.51,14.46,12.24,14.46,12.24H12.49Z"/>
  </g>
</svg>